<svg xmlns="http://www.w3.org/2000/svg" viewBox="0 0 1024 1024" role="img" aria-labelledby="title desc">
  <title id="title">Wizard Study Owl Bot Icon</title>
  <desc id="desc">A friendly owl with round glasses, wizard hat, wand sparkles, and an open study book.</desc>

  <defs>
    <radialGradient id="bg" cx="50%" cy="35%" r="75%">
      <stop offset="0%" stop-color="#1C2A55" />
      <stop offset="70%" stop-color="#152043" />
      <stop offset="100%" stop-color="#0D1530" />
    </radialGradient>

    <linearGradient id="owlBody" x1="0%" y1="0%" x2="0%" y2="100%">
      <stop offset="0%" stop-color="#B9814D" />
      <stop offset="100%" stop-color="#7F4C24" />
    </linearGradient>

    <linearGradient id="owlHead" x1="0%" y1="0%" x2="0%" y2="100%">
      <stop offset="0%" stop-color="#C88F59" />
      <stop offset="100%" stop-color="#935B2D" />
    </linearGradient>

    <linearGradient id="belly" x1="0%" y1="0%" x2="0%" y2="100%">
      <stop offset="0%" stop-color="#F7DCB1" />
      <stop offset="100%" stop-color="#E9BE85" />
    </linearGradient>

    <linearGradient id="hat" x1="0%" y1="0%" x2="0%" y2="100%">
      <stop offset="0%" stop-color="#3E5ACB" />
      <stop offset="100%" stop-color="#243887" />
    </linearGradient>

    <filter id="shadow" x="-20%" y="-20%" width="140%" height="140%">
      <feDropShadow dx="0" dy="8" stdDeviation="10" flood-color="#000000" flood-opacity="0.35" />
    </filter>
  </defs>

  <circle cx="512" cy="512" r="500" fill="url(#bg)" />

  <g fill="#F6D36B" opacity="0.9">
    <circle cx="182" cy="188" r="5" />
    <circle cx="250" cy="126" r="4" />
    <circle cx="326" cy="172" r="6" />
    <circle cx="748" cy="168" r="5" />
    <circle cx="836" cy="220" r="4" />
    <circle cx="706" cy="110" r="6" />
  </g>

  <g filter="url(#shadow)">
    <ellipse cx="512" cy="596" rx="258" ry="296" fill="url(#owlBody)" />
    <circle cx="512" cy="378" r="210" fill="url(#owlHead)" />

    <ellipse cx="512" cy="646" rx="168" ry="185" fill="url(#belly)" />
    <ellipse cx="512" cy="695" rx="96" ry="114" fill="#F2CCA0" />

    <ellipse cx="366" cy="625" rx="82" ry="154" fill="#8D562A" />
    <ellipse cx="658" cy="625" rx="82" ry="154" fill="#8D562A" />

    <path d="M512 430 L550 490 L474 490 Z" fill="#F2A33A" />

    <circle cx="432" cy="386" r="80" fill="#FEF8EE" />
    <circle cx="592" cy="386" r="80" fill="#FEF8EE" />
    <circle cx="432" cy="395" r="31" fill="#2A1C13" />
    <circle cx="592" cy="395" r="31" fill="#2A1C13" />
    <circle cx="442" cy="386" r="9" fill="#FFFFFF" />
    <circle cx="602" cy="386" r="9" fill="#FFFFFF" />

    <circle cx="432" cy="386" r="88" fill="none" stroke="#222222" stroke-width="14" />
    <circle cx="592" cy="386" r="88" fill="none" stroke="#222222" stroke-width="14" />
    <rect x="490" y="374" width="44" height="16" rx="8" fill="#222222" />

    <path d="M340 320 Q430 270 500 325" fill="none" stroke="#7A4A25" stroke-width="13" stroke-linecap="round" />
    <path d="M524 325 Q594 270 684 320" fill="none" stroke="#7A4A25" stroke-width="13" stroke-linecap="round" />

    <ellipse cx="512" cy="196" rx="164" ry="42" fill="#263D90" />
    <path d="M410 190 L512 30 L614 190 Z" fill="url(#hat)" />
    <path d="M512 78 L530 112 L568 118 L540 144 L548 182 L512 162 L476 182 L484 144 L456 118 L494 112 Z" fill="#F6D36B" />

    <rect x="684" y="560" width="14" height="160" rx="7" transform="rotate(-28 691 640)" fill="#5B3A24" />
    <path d="M736 505 L748 527 L772 531 L754 547 L758 571 L736 560 L714 571 L718 547 L700 531 L724 527 Z" fill="#F6D36B" />
    <path d="M772 548 L780 562 L796 565 L784 576 L786 592 L772 585 L758 592 L760 576 L748 565 L764 562 Z" fill="#F6D36B" opacity="0.85" />

    <path d="M376 780 Q512 742 648 780 L640 850 Q512 826 384 850 Z" fill="#E4B062" />
    <path d="M384 850 Q512 823 640 850 L632 896 Q512 878 392 896 Z" fill="#D69B49" />
    <line x1="432" y1="790" x2="420" y2="886" stroke="#B67E34" stroke-width="4" />
    <line x1="474" y1="783" x2="464" y2="882" stroke="#B67E34" stroke-width="4" />
    <line x1="515" y1="780" x2="512" y2="878" stroke="#B67E34" stroke-width="4" />
    <line x1="556" y1="783" x2="566" y2="882" stroke="#B67E34" stroke-width="4" />
    <line x1="598" y1="790" x2="610" y2="886" stroke="#B67E34" stroke-width="4" />
  </g>
</svg>
